<?xml version="1.0" encoding="utf-8"?>
<!-- Generator: Adobe Illustrator 24.0.2, SVG Export Plug-In . SVG Version: 6.00 Build 0)  -->
<svg version="1.1" id="레이어_1" xmlns="http://www.w3.org/2000/svg" xmlns:xlink="http://www.w3.org/1999/xlink" x="0px"
	 y="0px" viewBox="0 0 573 159" style="enable-background:new 0 0 573 159;" xml:space="preserve">
<style type="text/css">
	.st0{fill:none;}
	.st1{fill:#3B82F6;}
	.st2{fill:#FFFFFF;}
</style>
<path class="st0" d="M285.5,457"/>
<g>
	<path class="st1" d="M116.93,1.33H43.05C20,1.33,1.32,20.01,1.32,43.06v73.87c0,23.05,18.68,41.73,41.73,41.73h73.87
		c23.05,0,41.73-18.68,41.73-41.73V43.06C158.66,20.01,139.98,1.33,116.93,1.33z M69.47,71.96c0,0.35-0.01,0.68-0.02,1.03v41.87
		c0,2.88-2.33,5.22-5.22,5.22s-5.22-2.33-5.22-5.22v-24.8c-3.06,1.76-6.62,2.77-10.41,2.77H38.16c-11.53,0-20.87-9.35-20.87-20.87
		V61.52c0-11.53,9.35-20.87,20.87-20.87H48.6c10.21,0,18.72,7.34,20.51,17.04c0.21,0.56,0.33,1.18,0.33,1.82v0.98
		c0.01,0.34,0.02,0.68,0.02,1.03v10.45H69.47z M90.48,51.1c0-11.53,9.35-20.87,20.87-20.87h10.44c11.53,0,20.87,9.35,20.87,20.87
		v10.44c0,11.53-9.35,20.87-20.87,20.87h-10.44c-11.53,0-20.87-9.35-20.87-20.87V51.1z M145.58,120.42c0,0.63-0.1,6.35-3.04,12.23
		c-1.85,3.69-4.41,6.67-7.63,8.82c-3.94,2.64-8.75,3.98-14.31,3.98h-19.71c-2.88,0-5.22-2.33-5.22-5.22s2.33-5.22,5.22-5.22h19.71
		c6,0,10.09-2.21,12.47-6.77c1.93-3.68,2.06-7.59,2.08-7.87v0.02v-0.03l0,0v-19.74c0-2.88,2.33-5.22,5.22-5.22s5.22,2.33,5.22,5.22
		V120.42z"/>
	<path class="st2" d="M111.35,82.4h10.44c11.53,0,20.87-9.35,20.87-20.87V51.09c0-11.53-9.35-20.87-20.87-20.87h-10.44
		c-11.53,0-20.87,9.35-20.87,20.87v10.44C90.48,73.06,99.82,82.4,111.35,82.4z M101.61,52.06c2.35-8.32,11-13.15,19.31-10.81
		c8.32,2.35,13.15,11,10.81,19.31s-11,13.15-19.31,10.81C104.09,69.02,99.25,60.38,101.61,52.06z"/>
	<circle class="st1" cx="43.39" cy="66.75" r="15.65"/>
	<circle class="st1" cx="116.67" cy="56.32" r="15.65"/>
	<path class="st2" d="M140.36,95.41c-2.88,0-5.22,2.33-5.22,5.22v19.74l0,0v0.03v-0.02c-0.01,0.28-0.15,4.19-2.08,7.87
		c-2.38,4.56-6.46,6.77-12.47,6.77h-19.71c-2.88,0-5.22,2.33-5.22,5.22s2.33,5.22,5.22,5.22h19.71c5.54,0,10.36-1.34,14.31-3.98
		c3.22-2.15,5.78-5.12,7.63-8.82c2.94-5.88,3.04-11.6,3.04-12.23v-19.78C145.58,97.75,143.23,95.41,140.36,95.41z"/>
	<path class="st2" d="M69.45,59.51c0-0.64-0.11-1.26-0.33-1.82c-1.8-9.7-10.3-17.04-20.51-17.04H38.17
		c-11.53,0-20.87,9.35-20.87,20.87v10.44c0,11.53,9.35,20.87,20.87,20.87h10.44c3.79,0,7.35-1.01,10.41-2.77v24.8
		c0,2.88,2.33,5.22,5.22,5.22s5.22-2.33,5.22-5.22V72.99c0.01-0.34,0.02-0.68,0.02-1.03V61.52c0-0.35-0.01-0.68-0.02-1.03v-0.98
		H69.45z M58.45,71.01c-2.35,8.32-11,13.15-19.31,10.81c-8.32-2.35-13.15-11-10.81-19.31s11-13.15,19.31-10.81
		C55.96,54.04,60.79,62.69,58.45,71.01z"/>
</g>
<g>
	<path d="M177,112.84V44.72h16.22v54.85h27v13.26H177z"/>
	<path d="M238.72,39.67c2.29,0,4.29,0.51,6.01,1.53c1.72,1.02,2.58,2.99,2.58,5.91c0,2.86-0.86,4.82-2.58,5.87
		c-1.72,1.05-3.72,1.57-6.01,1.57c-2.42,0-4.47-0.52-6.15-1.57c-1.69-1.05-2.53-3.01-2.53-5.87c0-2.92,0.84-4.9,2.53-5.91
		C234.25,40.17,236.31,39.67,238.72,39.67z M246.64,60.46v52.37h-16.03V60.46H246.64z"/>
	<path d="M291.67,59.51c5.53,0,10,1.51,13.4,4.53c3.4,3.02,5.1,7.9,5.1,14.64v34.15h-16.03V83.17c0-3.63-0.61-6.36-1.81-8.2
		c-1.21-1.84-3.12-2.77-5.72-2.77c-3.88,0-6.52,1.45-7.92,4.34c-1.4,2.89-2.1,7.04-2.1,12.45v23.85h-16.12V60.46h12.21l2.19,6.77
		h0.76c1.65-2.54,3.88-4.47,6.68-5.77C285.12,60.16,288.24,59.51,291.67,59.51z"/>
	<path d="M339.85,70.96c0,2.04-0.08,4.18-0.24,6.44c-0.16,2.26-0.37,4.44-0.62,6.54h0.29c0.83-1.27,1.77-2.64,2.82-4.1
		c1.05-1.46,2.08-2.8,3.1-4.01l13.36-15.36h17.94l-19.56,22.51l20.8,29.86h-18.41L345.86,92.8l-6.01,4.68v15.36h-16.12v-72.5h16.12
		V70.96z"/>
	<path d="M429.52,112.84h-48.46v-10.97l16.89-17.08c3.44-3.56,6.17-6.49,8.21-8.78c2.03-2.29,3.48-4.31,4.34-6.06
		c0.86-1.75,1.29-3.61,1.29-5.58c0-2.35-0.7-4.1-2.1-5.25c-1.4-1.14-3.21-1.72-5.44-1.72c-2.35,0-4.71,0.61-7.06,1.81
		c-2.35,1.21-4.9,2.96-7.63,5.25l-8.87-10.4c1.97-1.78,4.07-3.45,6.3-5.01c2.23-1.56,4.85-2.83,7.87-3.82
		c3.02-0.99,6.66-1.48,10.92-1.48c4.58,0,8.5,0.81,11.78,2.43c3.27,1.62,5.82,3.82,7.63,6.58c1.81,2.77,2.72,5.93,2.72,9.49
		c0,3.88-0.73,7.36-2.19,10.45c-1.46,3.09-3.63,6.17-6.49,9.25c-2.86,3.09-6.36,6.5-10.49,10.26l-7.06,6.49v0.57h27.86V112.84z"/>
	<path d="M503.55,78.68c0,7.38-1.26,13.82-3.77,19.32c-2.51,5.5-6.54,9.62-12.07,12.35l16.5,18.7h-20.51l-12.02-15.26h-0.86
		c-7.51,0-13.67-1.46-18.51-4.39c-4.83-2.92-8.41-7.03-10.73-12.31c-2.32-5.28-3.48-11.45-3.48-18.51c0-7.06,1.16-13.2,3.48-18.41
		c2.32-5.21,5.9-9.27,10.73-12.16c4.83-2.89,11.03-4.34,18.6-4.34c7.57,0,13.75,1.45,18.56,4.34c4.8,2.89,8.35,6.96,10.64,12.21
		C502.41,65.47,503.55,71.62,503.55,78.68z M455.18,78.68c0,6.68,1.22,11.92,3.67,15.74c2.45,3.82,6.44,5.72,11.97,5.72
		c5.66,0,9.68-1.91,12.07-5.72c2.39-3.82,3.58-9.06,3.58-15.74c0-6.68-1.19-11.94-3.58-15.79c-2.39-3.85-6.38-5.77-11.97-5.77
		c-5.6,0-9.62,1.92-12.07,5.77C456.41,66.74,455.18,72.01,455.18,78.68z"/>
	<path d="M537.8,44.72c18.32,0,27.48,6.77,27.48,20.32c0,4.39-1.16,8.08-3.48,11.07c-2.32,2.99-5.23,5.34-8.73,7.06L573,112.84
		h-18.22l-15.36-25.57h-6.39v25.57h-16.22V44.72H537.8z M537.13,57.5h-4.1v17.08h4.1c3.88,0,6.79-0.72,8.73-2.15
		c1.94-1.43,2.91-3.7,2.91-6.82c0-2.73-0.92-4.77-2.77-6.11C544.16,58.17,541.2,57.5,537.13,57.5z"/>
</g>
</svg>
