<?xml version="1.0" encoding="utf-8"?>
<!-- Generator: Adobe Illustrator 24.0.2, SVG Export Plug-In . SVG Version: 6.00 Build 0)  -->
<svg version="1.1" id="레이어_1" xmlns="http://www.w3.org/2000/svg" xmlns:xlink="http://www.w3.org/1999/xlink" x="0px"
	 y="0px" viewBox="0 0 140 140" style="enable-background:new 0 0 140 140;" xml:space="preserve">
<style type="text/css">
	.st0{fill:#3B82F6;}
	.st1{fill:#FFFFFF;}
</style>
<g>
	<path class="st0" d="M102.55-0.21H36.72c-20.54,0-37.19,16.65-37.19,37.19v65.83c0,20.54,16.65,37.19,37.19,37.19h65.83
		c20.54,0,37.19-16.65,37.19-37.19V36.98C139.74,16.44,123.09-0.21,102.55-0.21z M60.26,62.73c0,0.31-0.01,0.61-0.02,0.92v37.31
		c0,2.57-2.08,4.65-4.65,4.65c-2.57,0-4.65-2.08-4.65-4.65v-22.1c-2.73,1.57-5.9,2.47-9.28,2.47h-9.3c-10.27,0-18.6-8.33-18.6-18.6
		v-9.3c0-10.27,8.33-18.6,18.6-18.6h9.3c9.1,0,16.68,6.54,18.28,15.18c0.19,0.5,0.29,1.05,0.29,1.62v0.87
		c0.01,0.3,0.02,0.61,0.02,0.92V62.73z M78.98,44.14c0-10.27,8.33-18.6,18.6-18.6h9.3c10.27,0,18.6,8.33,18.6,18.6v9.3
		c0,10.27-8.33,18.6-18.6,18.6h-9.3c-10.27,0-18.6-8.33-18.6-18.6V44.14z M128.08,105.91c0,0.56-0.09,5.66-2.71,10.9
		c-1.65,3.29-3.93,5.94-6.8,7.86c-3.51,2.35-7.8,3.55-12.75,3.55H88.26c-2.57,0-4.65-2.08-4.65-4.65c0-2.57,2.08-4.65,4.65-4.65
		h17.56c5.35,0,8.99-1.97,11.11-6.03c1.72-3.28,1.84-6.76,1.85-7.01l0,0.02l0-0.03c0,0,0,0,0,0V88.28c0-2.57,2.08-4.65,4.65-4.65
		c2.57,0,4.65,2.08,4.65,4.65V105.91z"/>
	<path class="st1" d="M97.58,72.03h9.3c10.27,0,18.6-8.33,18.6-18.6v-9.3c0-10.27-8.33-18.6-18.6-18.6h-9.3
		c-10.27,0-18.6,8.33-18.6,18.6v9.3C78.98,63.71,87.31,72.03,97.58,72.03z M88.9,45c2.09-7.41,9.8-11.72,17.21-9.63
		c7.41,2.09,11.72,9.8,9.63,17.21s-9.8,11.72-17.21,9.63C91.11,60.11,86.8,52.41,88.9,45z"/>
	<circle class="st0" cx="37.02" cy="58.09" r="13.95"/>
	<circle class="st0" cx="102.32" cy="48.79" r="13.95"/>
	<path class="st1" d="M123.43,83.63c-2.57,0-4.65,2.08-4.65,4.65v17.59c0,0,0,0,0,0l0,0.03l0-0.02c-0.01,0.25-0.13,3.73-1.85,7.01
		c-2.12,4.06-5.76,6.03-11.11,6.03H88.26c-2.57,0-4.65,2.08-4.65,4.65c0,2.57,2.08,4.65,4.65,4.65h17.56
		c4.94,0,9.23-1.19,12.75-3.55c2.87-1.92,5.15-4.56,6.8-7.86c2.62-5.24,2.71-10.34,2.71-10.9V88.28
		C128.08,85.71,125.99,83.63,123.43,83.63z"/>
	<path class="st1" d="M60.24,51.64c0-0.57-0.1-1.12-0.29-1.62c-1.6-8.64-9.18-15.18-18.28-15.18h-9.3c-10.27,0-18.6,8.33-18.6,18.6
		v9.3c0,10.27,8.33,18.6,18.6,18.6h9.3c3.38,0,6.55-0.9,9.28-2.47v22.1c0,2.57,2.08,4.65,4.65,4.65c2.57,0,4.65-2.08,4.65-4.65
		V63.65c0.01-0.3,0.02-0.61,0.02-0.92v-9.3c0-0.31-0.01-0.61-0.02-0.92V51.64z M50.44,61.88c-2.09,7.41-9.8,11.72-17.21,9.63
		c-7.41-2.09-11.72-9.8-9.63-17.21c2.09-7.41,9.8-11.72,17.21-9.63C48.22,46.76,52.53,54.47,50.44,61.88z"/>
</g>
</svg>
