<svg xmlns="http://www.w3.org/2000/svg" viewBox="0 0 72.95 56.471" style="enable-background:new 0 0 72.95 56.471" xml:space="preserve"><path style="fill:#5865f2" d="M61.796 4.729A59.425 59.425 0 0 0 46.746 0a44.161 44.161 0 0 0-1.928 4.003c-5.611-.844-11.171-.844-16.68 0A42.79 42.79 0 0 0 26.187 0a59.207 59.207 0 0 0-15.062 4.741C1.601 19.134-.981 33.17.31 47.006c6.317 4.718 12.44 7.583 18.458 9.459a45.79 45.79 0 0 0 3.953-6.511 38.81 38.81 0 0 1-6.225-3.03 30.984 30.984 0 0 0 1.526-1.207c12.003 5.614 25.045 5.614 36.905 0 .499.416 1.01.82 1.526 1.207a38.786 38.786 0 0 1-6.237 3.036 45.757 45.757 0 0 0 3.953 6.511c6.025-1.875 12.153-4.741 18.47-9.465 1.516-16.04-2.587-29.946-10.843-42.277zM24.357 38.497c-3.603 0-6.558-3.364-6.558-7.46s2.892-7.466 6.558-7.466c3.667 0 6.621 3.364 6.558 7.466.006 4.096-2.892 7.46-6.558 7.46zm24.236 0c-3.603 0-6.558-3.364-6.558-7.46s2.892-7.466 6.558-7.466 6.621 3.364 6.558 7.466c.001 4.096-2.891 7.46-6.558 7.46z"/></svg>