<svg xmlns="http://www.w3.org/2000/svg" viewBox="0 0 1000 1000" xml:space="preserve"><path fill="#0066DA" d="m114.1 779.7 40.1 69.3c8.3 14.6 20.3 26 34.4 34.4l143.2-247.9H45.3c0 16.4 4.3 32.6 12.5 46.9l56.3 97.3z"/><path fill="#00AC47" d="m500 343.8-143.2-248c-14.1 8.3-26 19.8-34.4 34.4L57.8 588.5c-8.2 14.3-12.5 30.4-12.5 46.9h286.5L500 343.8z"/><path fill="#00832D" d="m500 343.8 143.2-248c-14.1-8.3-30.2-12.5-46.9-12.5H403.6c-16.7 0-32.8 4.7-46.9 12.5l143.3 248z"/><path fill="#2684FC" d="M668.2 635.4H331.8L188.5 883.3c14.1 8.3 30.2 12.5 46.9 12.5h529.2c16.7 0 32.8-4.7 46.9-12.5L668.2 635.4z"/><path fill="#EA4335" d="M811.5 883.3c14.1-8.3 26-19.8 34.4-34.4l16.7-28.7 79.7-138c8.2-14.3 12.5-30.4 12.5-46.9H668.7l142.8 248z"/><path fill="#FFBA00" d="M809.9 359.4 677.6 130.2c-8.3-14.6-20.3-26-34.4-34.4L500 343.8l168.2 291.7h285.9c0-16.4-4.3-32.6-12.5-46.9L809.9 359.4z"/></svg>