<svg xmlns="http://www.w3.org/2000/svg" viewBox="0 0 923.08 261.85"><path fill="#231e1f" d="M47.53.91C28.63 8.82 7.85 31.13 1.29 59.21-7 94.75 27.57 109.76 30.4 104.86c3.32-5.8-6.22-7.75-8.18-26.18-2.5-23.83 8.55-50.45 22.49-62.14 2.6-2.13 2.48.88 2.48 6.44 0 10-.56 99.65-.56 118.37 0 25.33-1 33.31-3 41.18s-4.89 13.41-2.63 15.52c2.6 2.32 13.65-3.21 20.06-12.15 7.66-10.72 10.36-23.59 10.86-37.56.57-16.82.53-43.57.57-58.8 0-14 .22-54.94-.22-79.59-.13-6-16.9-12.34-24.78-9m871.38 133c-2.7 0-4 2.83-5 7.57-3.59 16.55-7.35 20.28-12.22 20.28-5.43 0-10.3-8.19-11.58-24.58-1-12.88-.82-36.61.44-60.22.25-4.84-1.07-9.63-14.07-14.38-5.62-2-13.75-5-17.8 4.77-11.46 27.6-15.92 49.58-17 58.46 0 .47-.59.54-.69-.53a462.75 462.75 0 0 1-2.35-47.35c-.06-5.27-1.16-9.83-7.06-13.53-3.8-2.39-15.36-6.66-19.54-1.6-3.57 4.14-7.75 15.26-12.11 28.45-3.52 10.73-6 18-6 18s0-28.95.1-39.94c0-4.15-2.83-5.52-3.68-5.78-3.86-1.13-11.49-3-14.69-3-4 0-4.93 2.23-4.93 5.47 0 .4-.66 38.08-.66 64.42v3.7c-2.17 12.13-9.32 28.58-17.08 28.58s-11.42-6.88-11.42-38.27c0-18.31.56-26.28.81-39.53.15-7.64.47-13.51.44-14.85-.07-4-7.13-6.13-10.4-6.88a30.94 30.94 0 0 0-8.41-1c-3.14.2-5.36 2.26-5.36 5.16v4.43c-4.06-6.4-10.62-10.86-15-12.15-11.74-3.48-24-.38-33.28 12.55-7.35 10.31-11.78 22-13.5 38.69-1.3 12.25-.88 24.65 1.41 35.13-2.77 11.84-7.86 16.71-13.41 16.71-8.1 0-13.93-13.2-13.28-36 .47-15 3.46-25.52 6.75-40.78 1.42-6.5.25-9.89-2.6-13.19-2.61-2.95-8.2-4.49-16.2-2.64-5.69 1.35-13.88 2.8-21.32 3.9a48.62 48.62 0 0 0 .81-5c1.92-16.62-16.13-15.26-21.88-10-3.45 3.16-5.81 6.9-6.69 13.62a16.07 16.07 0 0 0 7.29 15.7c-2.86 13.06-9.83 30.13-17.08 42.48A182.42 182.42 0 0 1 550 147.59v-5.77c-.07-27.48.28-49.11.44-56.89s.47-13.35.47-14.7c-.06-3-1.79-4.11-5.43-5.5a39.51 39.51 0 0 0-10.93-2.48c-4.92-.37-7.94 2.26-7.85 5.37v4.18c-4.07-6.4-10.64-10.86-15-12.15-11.78-3.48-24.05-.38-33.31 12.55-7.32 10.31-12.16 24.72-13.54 38.53-1.25 12.94-1 23.86.73 33.1-1.89 9.23-7.25 18.9-13.34 18.9-7.76 0-12.19-6.88-12.19-38.27 0-18.31.56-26.28.85-39.53.15-7.64.44-13.51.41-14.85 0-4-7.09-6.13-10.4-6.88a31.07 31.07 0 0 0-8.66-1c-3 .25-5.12 2.92-5.12 5v4.6c-4.08-6.4-10.64-10.86-15-12.15-11.75-3.48-23.93-.31-33.25 12.55-6.09 8.4-11 17.72-13.57 38.38a140.12 140.12 0 0 0-1 16.76c-2.42 14.82-13.12 31.9-21.85 31.9-5.15 0-10.05-9.93-10.05-31.12 0-28.19 1.76-68.38 2.07-72.27l13.22-.22c5.49 0 10.52.1 17.83-.28 3.71-.19 7.26-13.41 3.43-15.07-1.7-.73-13.88-1.39-18.72-1.48-4.08-.09-15.35-.93-15.35-.93s1-26.66 1.23-29.46c.19-2.39-2.83-3.57-4.58-4.3A62 62 0 0 0 309.06.53c-6.24-1.28-9 0-9.57 5.21-.82 8-1.25 31.25-1.25 31.25-4.59 0-20.13-.92-24.69-.92-4.23 0-8.82 18.21-2.94 18.43 6.75.25 18.46.51 26.24.72 0 0-.35 40.85-.35 53.44v3.89a61.78 61.78 0 0 1-19.34 34.38c3.24-14.78-3.35-25.87-15.28-35.23q-11.25-8.76-22.77-17.17s5.62-5.55 10.61-16.67c3.52-7.88 3.68-17-5-18.93-14.32-3.3-26.09 7.22-29.63 18.46-2.7 8.66-1.29 15.13 4.07 21.82l1.23 1.51q-5.47 10.66-11.4 21.09c-10.45 18.06-18.33 32.31-24.26 32.31-4.77 0-4.71-14.47-4.71-28 0-11.68.87-29.28 1.56-47.5.22-6-2.79-9.45-7.84-12.55-3.08-1.89-9.61-5.59-13.41-5.59-5.65 0-22 .75-37.51 45.49-2 5.65-5.79 15.91-5.79 15.91l.36-53.88a3.75 3.75 0 0 0-2.19-3.3c-2.61-1.41-9.61-4.29-15.77-4.29-3 0-4.46 1.38-4.46 4.11l-.5 84.14c0 6.41.15 13.88.78 17.14a18.14 18.14 0 0 0 2.93 7.53 8.61 8.61 0 0 0 5.11 3.27c2.23.47 14.51 2 15.14-2.67.78-5.62.81-11.67 7.25-34.37 10-35.29 23.11-52.49 29.26-58.63 1.1-1.06 2.32-1.12 2.26.64-.28 7.75-1.19 27.06-1.82 43.48-1.66 44 6.31 52.12 17.77 52.12 8.73 0 21-8.7 34.26-30.67 8.25-13.73 16.23-27.13 22-36.83 4 3.7 8.48 7.69 13 12 10.46 9.89 13.87 19.31 11.59 28.23-1.73 6.83-8.29 13.87-19.94 7-3.39-2-4.84-3.52-8.26-5.78-1.82-1.23-4.65-1.57-6.31-.31a22.42 22.42 0 0 0-8.32 12.65c-1.35 5.05 3.7 7.69 9 10 4.49 2 14.16 3.83 20.34 4 24.08.82 43.36-11.62 56.77-43.64 2.42 27.66 12.62 43.33 30.36 43.33 11.89 0 23.8-15.36 29-30.45a53.28 53.28 0 0 0 6.56 16c13.69 21.66 40.25 17 53.56-1.39 4.14-5.71 4.77-7.75 4.77-7.75 2 17.37 16 23.48 24 23.48 9 0 18.25-4.26 24.74-18.9a41.77 41.77 0 0 0 2.54 4.56c13.66 21.66 40.22 17 53.56-1.39.6-.9 1.17-1.66 1.63-2.38l.42 11.42-12.31 11.28c-20.56 18.87-36.2 33.19-37.36 49.83-1.45 21.25 15.76 29.13 28.82 30.16 13.82 1.11 25.68-6.52 33-17.26 6.41-9.42 10.62-29.67 10.31-49.7-.13-8-.32-18.21-.51-29.16a225.68 225.68 0 0 0 22.89-31.4c8.19-13.5 16.92-31.69 21.38-45.84 0 0 7.63.06 15.73-.44 2.61-.16 3.36.38 2.85 2.26-.56 2.29-10.22 39.62-1.41 64.49 6.06 17 19.66 22.51 27.76 22.51 9.44 0 18.49-7.16 23.32-17.77.6 1.16 1.2 2.32 1.89 3.39 13.66 21.66 40.12 17 53.56-1.39a54.1 54.1 0 0 0 4.74-7.75c2.9 18 16.9 23.55 24.9 23.55 8.38 0 16.29-3.42 22.73-18.62.25 6.69.66 12.15 1.35 13.88.41 1.07 2.79 2.39 4.49 3 7.66 2.83 15.45 1.48 18.3.88 2-.41 3.58-2 3.78-6.12.56-10.86.21-29.1 3.51-42.69 5.55-22.74 10.7-31.56 13.15-35.92 1.36-2.46 2.92-2.86 3-.29.09 5.24.38 20.63 2.55 41.35 1.54 15.2 3.64 24.2 5.27 27.07 4.59 8.13 10.3 8.5 14.92 8.5 2.95 0 9.1-.81 8.56-6-.28-2.5.2-18.11 5.63-40.52 3.57-14.67 9.51-27.88 11.64-32.72.82-1.79 1.17-.41 1.17-.13-.47 10.08-1.48 43.08 2.6 61.1 5.59 24.46 21.69 27.19 27.32 27.19 12 0 21.79-9.11 25.08-33.09.82-5.78-.38-10.24-3.92-10.24m-502-14.82c-.66 12.69-3.14 23.3-7.09 31-7.23 14-21.45 18.37-27.7-1.75-4.55-14.54-3-34.38-1.1-45.09 2.76-15.89 9.77-27.13 20.7-26.1 11.17 1.11 16.63 15.52 15.19 42m109.54.19c-.63 12-3.73 24-7.12 30.8-7 14.07-21.64 18.46-27.69-1.75-4.15-13.85-3.17-31.72-1.1-43 2.67-14.63 9.1-28.23 20.69-28.23 11.27 0 16.82 12.38 15.22 42.14m2.66 81.87c-.16 21.88-3.58 41-10.93 46.62-10.48 7.91-24.58 1.95-21.66-14 2.57-14.13 14.79-28.54 32.63-46.16 0 0 .06 4 0 13.54m189.1-81.6c-.64 13.16-3.56 23.42-7.16 30.67-7 14.07-21.51 18.43-27.7-1.75-3.36-11-3.52-29.43-1.09-44.77 2.44-15.65 9.32-27.45 20.68-26.42s16.49 15.52 15.27 42.26"/></svg>