<?xml version="1.0" encoding="iso-8859-1"?>
<!-- Generator: Adobe Illustrator 18.0.0, SVG Export Plug-In . SVG Version: 6.00 Build 0)  -->
<!DOCTYPE svg PUBLIC "-//W3C//DTD SVG 1.1//EN" "http://www.w3.org/Graphics/SVG/1.1/DTD/svg11.dtd">
<svg version="1.1" id="&#x421;&#x43B;&#x43E;&#x439;_1"
	 xmlns="http://www.w3.org/2000/svg" xmlns:xlink="http://www.w3.org/1999/xlink" x="0px" y="0px" viewBox="0 0 100 100"
	 style="enable-background:new 0 0 100 100;" xml:space="preserve">
<circle style="fill:#007BFF;" cx="49.998" cy="50.002" r="46.201"/>
<path style="fill:#007BFF;" d="M50.002,7.594c23.419,0,42.404,18.986,42.404,42.404S73.42,92.403,50.002,92.403
	S7.594,73.42,7.594,50.002S26.58,7.594,50.002,7.594 M50.002,0C22.385,0,0,22.385,0,50.002s22.385,50.002,50.002,50.002
	s50.002-22.385,50.002-50.002C99.969,22.4,77.603,0.031,50.002,0z"/>
<path style="fill:#FFFFFF;" d="M49.989,31.301c-9.999,0-19.998,4.122-27.175,10.833c-0.405,0.368-0.417,0.994-0.037,1.399
	l3.276,3.423c0.38,0.405,1.018,0.417,1.423,0.037c2.859-2.65,6.122-4.76,9.729-6.257c4.049-1.693,8.355-2.54,12.796-2.54
	s8.747,0.859,12.796,2.54c3.607,1.509,6.87,3.607,9.729,6.257c0.405,0.38,1.043,0.368,1.423-0.037l3.276-3.423
	c0.38-0.393,0.368-1.018-0.037-1.399C69.987,35.424,59.988,31.301,49.989,31.301z"/>
<path style="fill:#FFFFFF;" d="M32.47,53.569l3.509,3.472c0.38,0.368,0.981,0.393,1.374,0.037c3.472-3.079,7.925-4.772,12.624-4.772
	s9.152,1.681,12.624,4.772c0.393,0.356,0.994,0.331,1.374-0.037l3.509-3.472c0.405-0.405,0.393-1.055-0.037-1.435
	c-4.601-4.159-10.747-6.699-17.483-6.699s-12.882,2.54-17.483,6.699C32.077,52.514,32.065,53.164,32.47,53.569z M49.989,59.298
	c-2.871,0-5.472,1.202-7.287,3.128c-0.368,0.393-0.356,0.994,0.025,1.374l6.551,6.465c0.393,0.393,1.031,0.393,1.423,0l6.551-6.465
	c0.38-0.38,0.393-0.981,0.025-1.374C55.461,60.513,52.86,59.298,49.989,59.298z"/>
</svg>
