<svg xmlns="http://www.w3.org/2000/svg" viewBox="712.8 377.7 242 242" xml:space="preserve"><path fill="#0A66C2" d="M919.038 583.875h-35.9v-56.1c0-13.4-.2-30.6-18.6-30.6-18.7 0-21.5 14.6-21.5 29.6v57.1h-35.9v-115.5h34.4v15.8h.5c7-12 20.1-19.2 34-18.6 36.3 0 43 23.9 43 55v63.3zm-152.4-131.2c-11.4 0-20.8-9.4-20.8-20.8s9.4-20.8 20.8-20.8 20.8 9.4 20.8 20.8-9.3 20.7-20.8 20.8m18 131.2h-35.9v-115.5h35.9v115.5zm152.2-206.2h-206.1c-9.7-.1-17.7 7.8-17.9 17.4v207c.1 9.7 8.2 17.6 17.9 17.5h206.2c9.7.1 17.8-7.8 17.9-17.5v-206.9c-.2-9.7-8.3-17.6-18-17.5"/></svg>