<svg xmlns="http://www.w3.org/2000/svg" viewBox="0 0 170.05 170.05" style="enable-background:new 0 0 170.05 170.05" xml:space="preserve"><path style="fill:#1ed760" d="M85.025 1.282c-46.249 0-83.743 37.493-83.743 83.742 0 46.254 37.494 83.745 83.743 83.745 46.251 0 83.743-37.491 83.743-83.745.001-46.249-37.492-83.742-83.743-83.742zm38.406 120.787a5.217 5.217 0 0 1-7.177 1.737c-19.665-12.019-44.417-14.734-73.567-8.075a5.217 5.217 0 0 1-6.249-3.925 5.212 5.212 0 0 1 3.926-6.249c31.9-7.293 59.263-4.154 81.336 9.334a5.221 5.221 0 0 1 1.731 7.178zm10.247-22.803c-1.894 3.073-5.912 4.037-8.981 2.15-22.505-13.834-56.822-17.841-83.447-9.759-3.453 1.043-7.1-.903-8.148-4.35a6.538 6.538 0 0 1 4.354-8.143c30.415-9.229 68.226-4.759 94.074 11.125 3.069 1.891 4.035 5.911 2.148 8.977zm.884-23.744c-26.994-16.031-71.52-17.505-97.289-9.684-4.138 1.255-8.514-1.081-9.768-5.219a7.835 7.835 0 0 1 5.221-9.771c29.581-8.98 78.756-7.245 109.832 11.202a7.833 7.833 0 0 1 2.737 10.733c-2.209 3.722-7.02 4.949-10.733 2.739z"/></svg>