<svg xmlns="http://www.w3.org/2000/svg" viewBox="0 0 696.6 696.6" style="enable-background:new 0 0 696.6 696.6" xml:space="preserve"><circle cx="348.3" cy="348.3" r="348.3" style="fill:#34e0a1"/><path d="m563.4 280.3 42-45.8h-93.2c-98.8-67.3-228.8-67.3-327.6 0H91.2l42 45.8c-52.2 48-55.7 129.3-7.6 181.6 48 52.2 129.3 55.7 181.6 7.6l41.2 44.8 41.2-44.8c52.1 48.2 133.4 44.9 181.6-7.2 48.2-52.1 44.9-133.4-7.2-181.6-.3-.1-.4-.2-.6-.4zM219.8 462.2c-48 0-87-39-87-87s39-87 87-87 87 39 87 87c0 48.1-39 87-87 87zm128.5-89.4c0-57.2-41.6-106.3-96.5-127.3a251.2 251.2 0 0 1 193 0c-54.9 21-96.5 70.1-96.5 127.3zm128.5 89.4c-48 0-87-39-87-87s39-87 87-87 87 39 87 87c0 48.1-39 87-87 87zm0-132.5c-25.2 0-45.6 20.4-45.6 45.6 0 25.2 20.4 45.6 45.6 45.6 25.2 0 45.6-20.4 45.6-45.6-.1-25.2-20.5-45.6-45.6-45.6zm-211.4 45.5c0 25.2-20.4 45.6-45.5 45.6-25.2 0-45.6-20.4-45.6-45.5 0-25.2 20.4-45.6 45.5-45.6s45.6 20.4 45.6 45.5z"/></svg>