<svg xmlns="http://www.w3.org/2000/svg" xmlns:xlink="http://www.w3.org/1999/xlink" viewBox="0 0 584.044 584.045" style="enable-background:new 0 0 584.044 584.045" xml:space="preserve"><defs><path id="a" d="M583.998 435.833c0 3.198-.097 10.132-.29 15.49-.47 13.108-1.509 30.021-3.081 37.729-2.362 11.581-5.927 22.512-10.575 31.61-5.499 10.763-12.516 20.404-20.851 28.724-8.318 8.303-17.949 15.291-28.696 20.769-9.146 4.661-20.146 8.227-31.793 10.579-7.63 1.541-24.417 2.56-37.442 3.023-5.362.191-12.299.287-15.485.287l-287.576-.046c-3.198 0-10.132-.097-15.489-.29-13.108-.471-30.021-1.509-37.729-3.081-11.581-2.362-22.512-5.926-31.61-10.575-10.763-5.499-20.404-12.516-28.725-20.851-8.303-8.318-15.291-17.949-20.769-28.696-4.661-9.146-8.228-20.146-10.58-31.793-1.541-7.63-2.559-24.417-3.023-37.442A533.83 533.83 0 0 1 0 435.788l.046-287.576c0-3.198.097-10.132.29-15.49.47-13.108 1.509-30.021 3.081-37.728 2.362-11.581 5.926-22.512 10.575-31.611 5.498-10.763 12.514-20.404 20.85-28.725 8.318-8.303 17.949-15.291 28.696-20.769C72.684 9.228 83.684 5.662 95.331 3.31c7.63-1.541 24.417-2.56 37.442-3.023A524.878 524.878 0 0 1 148.257 0l287.576.046c3.199 0 10.132.097 15.49.29 13.108.471 30.021 1.509 37.729 3.081 11.58 2.362 22.512 5.926 31.61 10.575 10.763 5.499 20.404 12.516 28.724 20.851 8.303 8.318 15.291 17.949 20.769 28.696 4.661 9.146 8.228 20.146 10.58 31.793 1.54 7.63 2.559 24.417 3.023 37.442.191 5.362.287 12.299.287 15.485l-.047 287.574z"/></defs><linearGradient id="b" gradientUnits="userSpaceOnUse" x1="292.022" y1="584.045" x2="292.022" y2="0"><stop offset="0" style="stop-color:#25cf43"/><stop offset="1" style="stop-color:#61fd7d"/></linearGradient><use xlink:href="#a" style="overflow:visible;fill-rule:evenodd;clip-rule:evenodd;fill:url(#b)"/><g><path style="fill-rule:evenodd;clip-rule:evenodd;fill:#fff" d="M445.618 139.808c-39.306-39.338-91.578-61.014-147.27-61.036-114.75 0-208.143 93.357-208.19 208.108-.015 36.681 9.572 72.487 27.79 104.047L88.413 498.776l110.364-28.941c30.408 16.58 64.644 25.317 99.488 25.332H298.351c114.739 0 208.14-93.369 208.187-208.121.021-55.609-21.613-107.899-60.92-147.238zM298.351 460.017h-.071c-31.049-.012-61.503-8.35-88.07-24.112l-6.319-3.749L138.4 449.33l17.481-63.833-4.115-6.544c-17.321-27.542-26.47-59.375-26.456-92.059.038-95.377 77.663-172.971 173.11-172.971 46.218.018 89.664 18.035 122.334 50.731s50.652 76.158 50.634 122.38c-.039 95.383-77.664 172.983-173.037 172.983zm94.914-129.554c-5.202-2.603-30.777-15.184-35.546-16.919-4.768-1.735-8.236-2.603-11.704 2.603s-13.437 16.919-16.471 20.389c-3.034 3.471-6.069 3.905-11.27 1.302-5.202-2.603-21.963-8.094-41.832-25.811-15.464-13.788-25.904-30.819-28.939-36.025s-.323-8.021 2.281-10.613c2.34-2.33 5.202-6.074 7.803-9.11 2.601-3.037 3.468-5.206 5.202-8.676 1.734-3.471.867-6.508-.434-9.111-1.3-2.603-11.703-28.199-16.039-38.611-4.222-10.14-8.511-8.768-11.704-8.927-3.031-.151-6.502-.183-9.97-.183-3.468 0-9.103 1.301-13.872 6.507-4.768 5.206-18.206 17.787-18.206 43.383 0 25.596 18.64 50.323 21.241 53.794 2.601 3.471 36.681 55.997 88.863 78.523 12.411 5.358 22.101 8.557 29.655 10.955 12.462 3.957 23.802 3.399 32.765 2.06 9.994-1.493 30.777-12.581 35.112-24.728 4.335-12.147 4.335-22.559 3.034-24.728-1.299-2.169-4.767-3.471-9.969-6.074z"/></g></svg>