<svg xmlns="http://www.w3.org/2000/svg" viewBox="5 5 669.839 294.616" xml:space="preserve" fill="#000000"><path d="M5.002 195.693v-84.341s-.917-36.364 35.448-72.73 70.895-32.391 70.895-32.391h47.671c169.164 0 185.582-1.222 364.866-1.222h53.783s13.577-.615 30.642 7.955c17.248 8.662 32.764 18.643 48.563 43.163 15.844 24.59 17.97 42.304 17.97 55.225v92.286c0 19.24-1.834 34.225-34.225 66.617s-73.95 28.725-73.95 28.725H517.16c-136.258 0-167.488.61-353.253.61h-55.005s-36.364 2.14-71.506-33.002-31.783-70.895-32.394-70.895zM63.368 74.377l34.225 147.596h37.587l16.807-84.952 16.196 84.952h38.503l34.225-146.68h-40.948l-11.918 80.368-16.807-80.674h-36.975l-16.807 81.59-12.529-81.895-41.559-.305zm196.884 41.289v106.172h36.12V115.666h-36.12zm41.594-29.991c0 10.27-10.2 18.607-22.767 18.607s-22.767-8.336-22.767-18.607 10.2-18.607 22.767-18.607 22.767 8.335 22.767 18.607zm8.756 192.423s45.096-34.222 45.096-85.157v-85.813c0-13.797 7.075-33.344 28.24-54.51s39.816-24.517 52.758-24.517h134.412c22.846.318 40.6 9.895 56.917 25.175 15.12 15.887 24.956 35.795 24.956 57.574v82.092c0 16.16-4.333 39.578-25.832 59.325-21.498 19.747-38.065 25.832-55.166 25.832l-261.38-.001zm248.246-162.323v106.172h36.12V115.775h-36.12zm41.593-29.991c0 10.27-10.2 18.607-22.767 18.607s-22.767-8.336-22.767-18.607c0-10.271 10.2-18.607 22.767-18.607s22.767 8.336 22.767 18.607zM406.923 221.18h40.5v-44.22h77.056v-33.056h-77.276v-34.588h87.346v-34.37H406.704l.22 146.234z"/><path d="M97.822 219.754C96.738 216.523 64.969 78.18 64.969 76.691c0-1.174 4.789-1.548 19.814-1.548 10.897 0 19.811.418 19.808.929-.009 1.568 11.199 75.026 11.95 78.326.655 2.874.77 2.918 1.605.619.495-1.362 4.475-19.905 8.845-41.206l7.945-38.729 17.904.34 17.904.34 8.11 39.223c4.461 21.573 8.451 39.564 8.867 39.98.995.995 1.184-.09 7.388-42.362l5.317-36.222h19.575c10.766 0 19.575.354 19.575.787 0 .895-31.982 138.602-32.964 141.933-.571 1.938-2.584 2.167-19.047 2.167-16.46 0-18.477-.229-19.055-2.167-.356-1.192-4.025-19.962-8.153-41.711s-7.762-39.8-8.076-40.114c-.968-.968-1.558 1.677-9.619 43.127l-7.827 40.246-18.242.343c-13.938.262-18.365-.03-18.771-1.238zm162.807-51.115v-52.63h34.674v105.26h-34.674v-52.63zm10.286-66.316c-2.175-.665-5.889-3.033-8.253-5.263-8.199-7.732-6.894-18.665 3.011-25.219 4.284-2.835 6.614-3.47 12.791-3.488 28.562-.079 30.44 32.956 1.98 34.815-3.066.2-7.354-.18-9.529-.845zm51.895 164.978c14.519-15.197 23.652-29.996 29.556-47.89 2.766-8.385 2.884-10.514 3.598-65.013.794-60.559.696-59.627 7.744-73.682 4.118-8.211 14.099-20.932 23.051-29.377 9.911-9.349 19.953-15.714 31.141-19.738l8.049-2.895h76.778c84.485 0 83.24-.098 100.306 7.9 21.655 10.148 41.664 34.567 47.052 57.419 2.722 11.547 2.695 107.387-.034 118.007-5.651 21.991-21.348 41.624-44.192 55.275-17.343 10.363-6.368 9.689-157.895 9.689H313.549l9.261-9.695zm272.173-98.662v-53.868h-37.15v107.736h37.15v-53.868zM447.62 199.597v-21.671h78.016v-34.674H447.62v-33.436h87.922V73.904H405.126l.814 20.631c.448 11.347.814 44.504.814 73.682v53.051h40.866v-21.671zm139.028-96.043c13.326-3.701 18.817-20.006 9.805-29.117-10.491-10.606-28.544-10.307-37.743.625-6.261 7.441-5.944 15.984.847 22.774 6.391 6.391 16.774 8.583 27.091 5.718z" fill="#fff"/></svg>