<svg xmlns="http://www.w3.org/2000/svg" viewBox="0 0 1000 1000" xml:space="preserve" fill="#000000"><path d="M499.8 245.9c-134.2 0-268.3 55.3-364.6 145.4-5.4 4.9-5.6 13.3-.5 18.8l44 45.9c5.1 5.4 13.7 5.6 19.1.5 38.4-35.6 82.1-63.9 130.5-84 54.3-22.7 112.1-34.1 171.7-34.1s117.4 11.5 171.7 34.1c48.4 20.2 92.2 48.4 130.5 84 5.4 5.1 14 4.9 19.1-.5l44-45.9c5.1-5.3 4.9-13.7-.5-18.8-96.6-90.1-230.8-145.4-365-145.4z"/><path d="m264.8 544.7 47.1 46.6c5.1 4.9 13.2 5.3 18.4.5 46.6-41.3 106.3-64 169.4-64s122.8 22.6 169.4 64c5.3 4.8 13.3 4.4 18.4-.5l47.1-46.6c5.4-5.4 5.3-14.2-.5-19.3-61.7-55.8-144.2-89.9-234.6-89.9s-172.9 34.1-234.6 89.9c-5.4 5.2-5.6 13.9-.1 19.3zm235 76.9c-38.5 0-73.4 16.1-97.8 42-4.9 5.3-4.8 13.3.3 18.4l87.9 86.7c5.3 5.3 13.8 5.3 19.1 0l87.9-86.7c5.1-5.1 5.3-13.2.3-18.4-24.2-25.7-59.1-42-97.7-42z"/></svg>