<svg xmlns="http://www.w3.org/2000/svg" viewBox="-42.003 25.759 31.667 22.195" style="enable-background:new -42.003 25.759 31.667 22.195" xml:space="preserve"><path style="fill:red" d="M-11.027 29.234a3.988 3.988 0 0 0-2.805-2.805c-2.459-.671-12.358-.671-12.358-.671s-9.898.02-12.358.691a3.988 3.988 0 0 0-2.805 2.805c-.65 2.459-.65 7.602-.65 7.602s0 5.142.671 7.622a3.988 3.988 0 0 0 2.805 2.805c2.459.671 12.358.671 12.358.671s9.898 0 12.358-.671a3.988 3.988 0 0 0 2.805-2.805c.671-2.459.671-7.622.671-7.622s-.021-5.142-.692-7.622z"/><path style="fill:#fff" d="m-29.34 41.612 8.211-4.756-8.211-4.756z"/></svg>