<?xml version="1.0" encoding="utf-8"?>
<!-- Generator: Adobe Illustrator 18.0.0, SVG Export Plug-In . SVG Version: 6.00 Build 0)  -->
<!DOCTYPE svg PUBLIC "-//W3C//DTD SVG 1.1//EN" "http://www.w3.org/Graphics/SVG/1.1/DTD/svg11.dtd">
<svg version="1.1" id="Слой_1" xmlns="http://www.w3.org/2000/svg" xmlns:xlink="http://www.w3.org/1999/xlink" x="0px" y="0px"
	 viewBox="0 0 1000 1000" enable-background="new 0 0 1000 1000" xml:space="preserve">
<path d="M0,333.3h111.1V222.2C49.7,222.2,0,272,0,333.3"/>
<path d="M111.1,333.3H0v111.1C61.4,444.4,111.1,394.7,111.1,333.3"/>
<path d="M0,666.7h111.1V555.6C49.7,555.6,0,605.3,0,666.7"/>
<rect y="666.7" width="111.1" height="111.1"/>
<rect y="777.8" width="111.1" height="111.1"/>
<path d="M111.1,555.6h111.1V444.4C160.9,444.4,111.1,494.2,111.1,555.6"/>
<path d="M222.2,777.8H111.1v111.1C172.5,888.9,222.2,839.1,222.2,777.8"/>
<path d="M222.2,222.2h111.1V111.1C272,111.1,222.2,160.9,222.2,222.2"/>
<path d="M333.3,222.2H222.2v111.1C283.6,333.3,333.3,283.6,333.3,222.2"/>
<rect x="222.2" y="444.4" width="111.1" height="111.1"/>
<path d="M333.3,555.6H222.2v111.1C283.6,666.7,333.3,616.9,333.3,555.6"/>
<path d="M444.4,0h-55.6c-30.7,0-55.6,24.9-55.6,55.6v55.6h55.6c30.7,0,55.6-24.9,55.6-55.6"/>
<path d="M333.3,444.4h111.1V333.3C383.1,333.3,333.3,383.1,333.3,444.4"/>
<path d="M333.3,888.9h111.1V777.8C383.1,777.8,333.3,827.5,333.3,888.9"/>
<path d="M444.4,222.2h111.1V111.1C494.2,111.1,444.4,160.9,444.4,222.2"/>
<rect x="444.4" y="222.2" width="111.1" height="111.1"/>
<rect x="444.4" y="333.3" width="111.1" height="111.1"/>
<rect x="444.4" y="777.8" width="111.1" height="111.1"/>
<rect x="444.4" y="888.9" width="111.1" height="111.1"/>
<path d="M555.6,111.1h111.1V0C605.3,0,555.6,49.7,555.6,111.1"/>
<path d="M666.7,111.1H555.6v111.1C616.9,222.2,666.7,172.5,666.7,111.1"/>
<path d="M666.7,333.3H555.6v111.1C616.9,444.4,666.7,394.7,666.7,333.3"/>
<path d="M555.6,666.7h111.1V555.6C605.3,555.6,555.6,605.3,555.6,666.7"/>
<rect x="555.6" y="666.7" width="111.1" height="111.1"/>
<rect x="555.6" y="888.9" width="111.1" height="111.1"/>
<rect x="666.7" y="0" width="111.1" height="111.1"/>
<path d="M666.7,333.3h111.1V222.2C716.4,222.2,666.7,272,666.7,333.3"/>
<path d="M777.8,444.4h-55.6c-30.7,0-55.6,24.9-55.6,55.6v55.6h55.6c30.7,0,55.6-24.9,55.6-55.6"/>
<path d="M777.8,666.7H666.7v111.1C728,777.8,777.8,728,777.8,666.7"/>
<rect x="666.7" y="888.9" width="111.1" height="111.1"/>
<path d="M888.9,0H777.8v111.1C839.1,111.1,888.9,61.4,888.9,0"/>
<path d="M888.9,222.2H777.8v111.1C839.1,333.3,888.9,283.6,888.9,222.2"/>
<path d="M777.8,666.7h111.1V555.6C827.5,555.6,777.8,605.3,777.8,666.7"/>
<path d="M777.8,888.9h111.1V777.8C827.5,777.8,777.8,827.5,777.8,888.9"/>
<path d="M888.9,444.4H1000V333.3C938.6,333.3,888.9,383.1,888.9,444.4"/>
<rect x="888.9" y="444.4" width="111.1" height="111.1"/>
<path d="M1000,555.6H888.9v111.1C950.3,666.7,1000,616.9,1000,555.6"/>
<path d="M888.9,888.9H777.8V1000C839.1,1000,888.9,950.3,888.9,888.9"/>
</svg>
