<?xml version="1.0" encoding="utf-8"?>
<!-- Generator: Adobe Illustrator 18.0.0, SVG Export Plug-In . SVG Version: 6.00 Build 0)  -->
<!DOCTYPE svg PUBLIC "-//W3C//DTD SVG 1.1//EN" "http://www.w3.org/Graphics/SVG/1.1/DTD/svg11.dtd">
<svg version="1.1" id="Слой_1" xmlns="http://www.w3.org/2000/svg" xmlns:xlink="http://www.w3.org/1999/xlink" x="0px" y="0px"
	 viewBox="0 0 1000 1000" enable-background="new 0 0 1000 1000" xml:space="preserve">
<circle cx="55.6" cy="277.8" r="55.6"/>
<circle cx="55.6" cy="388.9" r="55.6"/>
<circle cx="55.6" cy="611.1" r="55.6"/>
<circle cx="55.6" cy="722.2" r="55.6"/>
<circle cx="55.6" cy="833.3" r="55.6"/>
<circle cx="166.7" cy="500" r="55.6"/>
<circle cx="166.7" cy="833.3" r="55.6"/>
<circle cx="277.8" cy="166.7" r="55.6"/>
<circle cx="277.8" cy="277.8" r="55.6"/>
<circle cx="277.8" cy="500" r="55.6"/>
<circle cx="277.8" cy="611.1" r="55.6"/>
<circle cx="388.9" cy="55.6" r="55.6"/>
<circle cx="388.9" cy="388.9" r="55.6"/>
<circle cx="388.9" cy="833.3" r="55.6"/>
<circle cx="500" cy="166.7" r="55.6"/>
<circle cx="500" cy="277.8" r="55.6"/>
<circle cx="500" cy="388.9" r="55.6"/>
<circle cx="500" cy="833.3" r="55.6"/>
<circle cx="500" cy="944.4" r="55.6"/>
<circle cx="611.1" cy="55.6" r="55.6"/>
<circle cx="611.1" cy="166.7" r="55.6"/>
<circle cx="611.1" cy="388.9" r="55.6"/>
<circle cx="611.1" cy="611.1" r="55.6"/>
<circle cx="611.1" cy="722.2" r="55.6"/>
<circle cx="611.1" cy="944.4" r="55.6"/>
<circle cx="722.2" cy="55.6" r="55.6"/>
<circle cx="722.2" cy="277.8" r="55.6"/>
<circle cx="722.2" cy="500" r="55.6"/>
<circle cx="722.2" cy="722.2" r="55.6"/>
<circle cx="722.2" cy="944.4" r="55.6"/>
<circle cx="833.3" cy="55.6" r="55.6"/>
<circle cx="833.3" cy="277.8" r="55.6"/>
<circle cx="833.3" cy="611.1" r="55.6"/>
<circle cx="833.3" cy="833.3" r="55.6"/>
<circle cx="833.3" cy="944.4" r="55.6"/>
<circle cx="944.4" cy="388.9" r="55.6"/>
<circle cx="944.4" cy="500" r="55.6"/>
<circle cx="944.4" cy="611.1" r="55.6"/>
</svg>
