<svg xmlns="http://www.w3.org/2000/svg" xmlns:xlink="http://www.w3.org/1999/xlink" viewBox="0 0 66.146 66.146"><defs><linearGradient id="a"><stop style="stop-color:#0cbd2a;stop-opacity:1" offset="0"/><stop style="stop-color:#5bf675;stop-opacity:1" offset="1"/></linearGradient><linearGradient xlink:href="#a" id="b" x1="-25.273" y1="207.521" x2="-25.273" y2="152.998" gradientUnits="userSpaceOnUse" gradientTransform="matrix(.9821 0 0 .9821 -1.065 3.796)"/></defs><g transform="translate(59.483 -145.846)"><rect ry="14.568" rx="14.568" y="145.846" x="-59.483" height="66.146" width="66.146" style="opacity:1;fill:url(#b);fill-opacity:1;stroke:none;stroke-width:1.33634758;stroke-linecap:square;stroke-linejoin:miter;stroke-miterlimit:4;stroke-dasharray:none;stroke-dashoffset:0;stroke-opacity:1;paint-order:markers stroke fill"/><path d="M-26.41 157.296a24.278 20.222 0 0 0-24.278 20.222 24.278 20.222 0 0 0 11.794 17.316 27.365 20.222 0 0 1-4.245 5.942 23.857 20.222 0 0 0 9.86-3.874 24.278 20.222 0 0 0 6.869.838 24.278 20.222 0 0 0 24.278-20.222 24.278 20.222 0 0 0-24.278-20.222z" style="opacity:1;fill:#fff;fill-opacity:1;stroke:none;stroke-width:1.56409621;stroke-linecap:square;stroke-linejoin:miter;stroke-miterlimit:4;stroke-dasharray:none;stroke-dashoffset:0;stroke-opacity:1;paint-order:markers stroke fill"/></g></svg>