<svg xmlns="http://www.w3.org/2000/svg" viewBox="0 0 3000 3000"><path fill="#ff424d" d="M0 0h3000v3000H0z"/><path fill="#fff" d="M218.51 1349.62h141.78c75 0 123.42 56.63 123.42 122.44s-48.4 122.43-123.42 122.43H296.9v93.89h-78.39Zm186.32 122.44c0-31.46-21.3-58.56-54.21-58.56H296.9v117.11h53.72c32.91 0 54.21-27.09 54.21-58.55ZM783.76 1688.38l-13.06-41.13H650.2l-13.07 41.13h-83.74l121-338.76h72.1l122.45 338.76Zm-73.08-242-41.62 139.38h82.26ZM1000.56 1417.37h-76.44v-67.75h231.79v67.75h-77v271h-78.4ZM1277.86 1349.62h142.3c75 0 123.4 56.63 123.4 122.44 0 47.43-25.17 89.52-67.28 109.37l67.76 107h-91l-60-93.89h-36.78v93.89h-78.4Zm186.32 122.44c0-31.46-21.3-58.56-54.2-58.56h-53.72v117.11H1410c32.88 0 54.18-27.09 54.18-58.55ZM1755 1412.54v76.93h128.25V1551H1755v74.51h128.25v62.92h-206.6v-338.81h206.64v62.92ZM2010.56 1519c0-92.92 66.79-178.09 179.56-178.09 112.26 0 179.05 85.17 179.05 178.09s-66.79 178.09-179.05 178.09c-112.77 0-179.56-85.17-179.56-178.09Zm278.76 0c0-55.65-37.75-107.43-99.2-107.43-61.95 0-99.21 51.78-99.21 107.43s37.26 107.43 99.21 107.43c61.45 0 99.2-51.78 99.2-107.43ZM2703.58 1570.29v-220.67h77.91v338.76h-81.78l-122-217.78v217.78h-78.39v-338.76h81.78Z"/></svg>