<svg xmlns="http://www.w3.org/2000/svg" viewBox="112.3 41.7 775.8 916.7" xml:space="preserve"><path fill="#009CDE" d="M772.9 110.8c-42.4-48.4-119-69.1-217.1-69.1H271.3c-20 0-37.1 14.6-40.2 34.4L112.6 828.3c-2.1 13.3 7 25.9 20.3 28 1.3.2 2.5.3 3.8.3h175.7l-12.1 77c-1.9 11.7 6.1 22.6 17.8 24.5 1.1.2 2.2.3 3.3.3h148.1c17.5 0 32.4-12.8 35.2-30.1l1.5-7.5 27.9-177.1 1.8-9.8c2.7-17.3 17.6-30.1 35.2-30.1H593c143.4 0 255.8-58.3 288.6-227.1 13.7-70.5 6.6-129.4-29.6-170.8-11-12.5-24.6-22.9-40.5-31.3 11.1-71.3-.1-119.8-38.6-163.8z"/><path fill="#012169" d="M772.9 110.8c-42.4-48.4-119-69.1-217.1-69.1H271.3c-20 0-37.1 14.6-40.2 34.4L112.6 828.3c-2.1 13.3 7 25.9 20.3 28 1.3.2 2.5.3 3.8.3h175.7l44.1-280.1-1.4 8.8c3-19.8 20-34.4 40.1-34.4h83.5c164 0 292.4-66.7 329.9-259.6 1.1-5.6 2-11.1 2.9-16.7 11.1-71.3-.1-119.8-38.6-163.8z"/><path fill="#003087" d="M423.7 248.9c4.7-2.2 9.9-3.5 15.4-3.5h223c26.4 0 51 1.7 73.6 5.4 6.4 1 12.7 2.2 18.8 3.6 8.8 2 17.5 4.4 26.1 7.2 10.6 3.5 20.9 7.8 30.8 13 11.2-71.3-.1-119.8-38.6-163.8-42.4-48.4-119-69.1-217-69.1H271.3c-20 0-37.1 14.6-40.2 34.4L112.6 828.3c-2.1 13.3 7 25.9 20.3 28 1.3.2 2.5.3 3.8.3h175.7l91.5-581.1c1.9-11.9 9.5-21.7 19.8-26.6z"/></svg>