<svg xmlns="http://www.w3.org/2000/svg" viewBox="0 0 31.919 31.919" style="enable-background:new 0 0 31.919 31.919" xml:space="preserve"><circle style="fill:#ff4500" cx="15.959" cy="15.96" r="14.747"/><path style="fill:#ff4500" d="M15.96 2.424c7.475 0 13.535 6.06 13.535 13.535s-6.06 13.535-13.535 13.535S2.424 23.435 2.424 15.96 8.484 2.424 15.96 2.424m0-2.424C7.145 0 0 7.145 0 15.96s7.145 15.96 15.96 15.96 15.96-7.145 15.96-15.96C31.909 7.15 24.77.01 15.96 0z"/><path style="fill:#fff" d="M24.978 15.96a1.974 1.974 0 0 0-3.344-1.414c-1.349-.974-3.208-1.602-5.279-1.675l.899-4.23 2.939.624a1.414 1.414 0 1 0 .143-.689l-3.277-.697a.354.354 0 0 0-.419.27l-1.01 4.721c-2.095.059-3.988.681-5.349 1.675a1.972 1.972 0 1 0-2.174 3.233 3.846 3.846 0 0 0-.046.606c0 3.03 3.535 5.499 7.895 5.499s7.897-2.463 7.897-5.499c0-.199-.016-.397-.046-.594a1.973 1.973 0 0 0 1.171-1.83zm-13.536 1.414a1.414 1.414 0 1 1 2.828 0 1.414 1.414 0 0 1-2.828 0zm7.879 3.723c-.964.96-2.806 1.034-3.349 1.034-.543 0-2.386-.075-3.347-1.034a.365.365 0 1 1 .517-.517c.606.606 1.903.822 2.828.822s2.222-.216 2.828-.822a.368.368 0 0 1 .523.517zm-.258-2.309a1.414 1.414 0 1 1 0-2.828 1.414 1.414 0 0 1 0 2.828z"/></svg>