<svg xmlns="http://www.w3.org/2000/svg" xmlns:xlink="http://www.w3.org/1999/xlink" viewBox="0 0 100 100" fill="#000000" xml:space="preserve"><path style="fill:#fffc00" d="M99.992 74.623c0 .548-.017 1.735-.05 2.652-.08 2.244-.258 5.14-.528 6.46-.404 1.983-1.015 3.854-1.811 5.412a19.395 19.395 0 0 1-3.57 4.918 19.397 19.397 0 0 1-4.913 3.556c-1.566.798-3.449 1.409-5.444 1.811-1.306.264-4.181.438-6.411.518a89.09 89.09 0 0 1-2.65.05l-49.239-.008c-.548 0-1.735-.017-2.652-.05-2.244-.081-5.14-.258-6.46-.528-1.983-.404-3.854-1.015-5.412-1.811a19.395 19.395 0 0 1-4.918-3.57 19.397 19.397 0 0 1-3.556-4.913C1.58 87.554.969 85.671.566 83.676.302 82.37.128 79.495.048 77.265A95.396 95.396 0 0 1 0 74.615l.008-49.239c0-.548.017-1.735.05-2.652.08-2.244.258-5.14.528-6.46.404-1.982 1.014-3.854 1.81-5.412a19.371 19.371 0 0 1 3.57-4.918 19.397 19.397 0 0 1 4.913-3.556C12.445 1.58 14.328.969 16.323.567c1.306-.264 4.181-.438 6.411-.518A88.727 88.727 0 0 1 25.385 0l49.239.008c.548 0 1.735.017 2.652.05 2.244.081 5.14.258 6.46.528 1.983.404 3.854 1.015 5.412 1.811a19.395 19.395 0 0 1 4.918 3.57 19.397 19.397 0 0 1 3.556 4.913c.798 1.566 1.409 3.449 1.812 5.444.264 1.306.438 4.181.518 6.411.033.918.049 2.106.049 2.651l-.009 49.237z"/><defs><path id="a" d="M99.992 74.623c0 .548-.017 1.735-.05 2.652-.08 2.244-.258 5.14-.528 6.46-.404 1.983-1.015 3.854-1.811 5.412a19.395 19.395 0 0 1-3.57 4.918 19.397 19.397 0 0 1-4.913 3.556c-1.566.798-3.449 1.409-5.444 1.811-1.306.264-4.181.438-6.411.518a89.09 89.09 0 0 1-2.65.05l-49.239-.008c-.548 0-1.735-.017-2.652-.05-2.244-.081-5.14-.258-6.46-.528-1.983-.404-3.854-1.015-5.412-1.811a19.395 19.395 0 0 1-4.918-3.57 19.397 19.397 0 0 1-3.556-4.913C1.58 87.554.969 85.671.566 83.676.302 82.37.128 79.495.048 77.265A95.396 95.396 0 0 1 0 74.615l.008-49.239c0-.548.017-1.735.05-2.652.08-2.244.258-5.14.528-6.46.404-1.982 1.014-3.854 1.81-5.412a19.371 19.371 0 0 1 3.57-4.918 19.397 19.397 0 0 1 4.913-3.556C12.445 1.58 14.328.969 16.323.567c1.306-.264 4.181-.438 6.411-.518A88.727 88.727 0 0 1 25.385 0l49.239.008c.548 0 1.735.017 2.652.05 2.244.081 5.14.258 6.46.528 1.983.404 3.854 1.015 5.412 1.811a19.395 19.395 0 0 1 4.918 3.57 19.397 19.397 0 0 1 3.556 4.913c.798 1.566 1.409 3.449 1.812 5.444.264 1.306.438 4.181.518 6.411.033.918.049 2.106.049 2.651l-.009 49.237z"/></defs><clipPath id="b"><use xlink:href="#a" style="overflow:visible"/></clipPath><g style="clip-path:url(#b)"><path style="fill:#fff;stroke:#000;stroke-miterlimit:10" d="M80.034 66.646c-10.84-5.247-12.568-13.349-12.645-13.95-.093-.728-.199-1.3.605-2.041.774-.715 4.21-2.842 5.163-3.507 1.576-1.102 2.27-2.202 1.758-3.554-.358-.935-1.229-1.288-2.146-1.288a3.95 3.95 0 0 0-.86.097c-1.731.376-3.413 1.243-4.385 1.477-.117.03-.237.046-.358.048-.519 0-.715-.231-.665-.855.122-1.892.379-5.585.08-9.035-.41-4.747-1.94-7.098-3.756-9.178-.878-1.009-4.956-5.342-12.825-5.342s-11.942 4.333-12.814 5.33c-1.821 2.08-3.35 4.432-3.756 9.178-.299 3.45-.03 7.141.081 9.035.036.594-.147.855-.665.855a1.543 1.543 0 0 1-.358-.048c-.971-.234-2.652-1.102-4.384-1.477a4.013 4.013 0 0 0-.86-.097c-.921 0-1.789.358-2.146 1.288-.511 1.352.179 2.452 1.76 3.554.953.665 4.389 2.79 5.163 3.507.801.74.697 1.313.605 2.041-.077.61-1.806 8.712-12.645 13.95-.635.308-1.715.959.189 2.01 2.99 1.652 4.981 1.476 6.528 2.472 1.313.846.536 2.67 1.492 3.328 1.173.81 4.641-.057 9.121 1.422 3.756 1.238 6.038 4.734 12.698 4.734s9.009-3.513 12.698-4.734c4.471-1.479 7.946-.612 9.121-1.422.953-.658.179-2.482 1.492-3.328 1.547-.996 3.536-.819 6.528-2.472 1.901-1.039.82-1.69.186-1.998z"/><path style="stroke:#000;stroke-miterlimit:10" d="M84.75 66.029c-.487-1.323-1.413-2.032-2.468-2.618a6.553 6.553 0 0 0-.536-.281c-.315-.163-.637-.32-.957-.487-3.289-1.744-5.857-3.944-7.639-6.551a14.803 14.803 0 0 1-1.311-2.325c-.152-.435-.145-.681-.036-.907.108-.174.251-.323.42-.438.565-.374 1.148-.753 1.544-1.009a51.092 51.092 0 0 0 1.622-1.073c1.35-.944 2.295-1.948 2.885-3.069a6.11 6.11 0 0 0 .302-5.076c-.894-2.354-3.117-3.815-5.811-3.815-.568 0-1.135.06-1.69.179a10.53 10.53 0 0 0-.442.104 49.893 49.893 0 0 0-.154-4.981c-.508-5.879-2.566-8.96-4.713-11.418a18.766 18.766 0 0 0-4.791-3.856c-3.257-1.86-6.95-2.804-10.976-2.804s-7.701.944-10.962 2.804a18.703 18.703 0 0 0-4.8 3.863c-2.146 2.457-4.205 5.544-4.713 11.418a50.595 50.595 0 0 0-.156 4.981 10.082 10.082 0 0 0-.44-.104 8.065 8.065 0 0 0-1.69-.179c-2.695 0-4.922 1.461-5.813 3.815a6.121 6.121 0 0 0 .295 5.081c.592 1.121 1.536 2.125 2.887 3.069.358.25.917.612 1.622 1.073.381.247.937.608 1.483.969.191.123.353.286.476.478.115.234.118.486-.052.952a14.713 14.713 0 0 1-1.289 2.277c-1.742 2.548-4.235 4.709-7.419 6.439-1.687.894-3.439 1.492-4.18 3.504-.558 1.518-.193 3.246 1.225 4.702.521.543 1.124 1 1.789 1.354a19.346 19.346 0 0 0 4.376 1.751c.315.081.613.215.883.395.517.452.444 1.134 1.132 2.132.346.516.785.962 1.295 1.316 1.445.998 3.069 1.061 4.79 1.127 1.554.059 3.316.127 5.328.791.833.275 1.699.809 2.702 1.431 2.409 1.481 5.707 3.507 11.226 3.507s8.841-2.037 11.267-3.523c.996-.612 1.856-1.139 2.667-1.407 2.012-.665 3.774-.732 5.328-.791 1.721-.066 3.344-.129 4.79-1.127a4.993 4.993 0 0 0 1.474-1.61c.495-.842.483-1.431.948-1.842.253-.172.534-.3.83-.379a19.463 19.463 0 0 0 4.435-1.767 6.984 6.984 0 0 0 1.878-1.47l.018-.021c1.332-1.426 1.666-3.103 1.121-4.584zm-4.906 2.636c-2.992 1.652-4.981 1.476-6.528 2.472-1.315.846-.536 2.67-1.492 3.328-1.173.81-4.641-.057-9.121 1.422-3.695 1.222-6.052 4.734-12.698 4.734s-8.948-3.505-12.704-4.743c-4.471-1.479-7.946-.612-9.121-1.422-.953-.658-.179-2.482-1.492-3.328-1.549-.996-3.538-.819-6.528-2.463-1.905-1.052-.825-1.703-.189-2.01 10.838-5.247 12.568-13.349 12.645-13.95.093-.728.197-1.3-.605-2.041-.774-.715-4.21-2.842-5.163-3.507-1.577-1.102-2.271-2.202-1.76-3.554.358-.935 1.23-1.288 2.146-1.288.289.001.578.033.86.097 1.731.376 3.413 1.243 4.384 1.477.117.03.237.046.358.048.519 0 .701-.261.665-.855-.111-1.894-.379-5.585-.081-9.035.41-4.747 1.939-7.098 3.756-9.178.873-1 4.974-5.333 12.816-5.333s11.954 4.316 12.827 5.312c1.819 2.08 3.35 4.432 3.756 9.178.299 3.45.041 7.143-.08 9.035-.041.624.147.855.665.855.121-.002.241-.018.358-.048.973-.234 2.654-1.102 4.385-1.477.282-.063.571-.096.86-.097.921 0 1.789.358 2.146 1.288.511 1.352-.179 2.452-1.758 3.554-.953.665-4.389 2.79-5.163 3.507-.803.74-.697 1.313-.605 2.041.077.61 1.805 8.712 12.645 13.95.64.32 1.721.971-.184 2.031z"/></g></svg>