<svg xmlns="http://www.w3.org/2000/svg" xmlns:xlink="http://www.w3.org/1999/xlink" viewBox="0 0 600 600" style="enable-background:new 0 0 600 600" xml:space="preserve"><path d="M0 0h600v600H0z"/><defs><path id="a" d="M0 0h600v600H0z"/></defs><clipPath id="b"><use xlink:href="#a" style="overflow:visible"/></clipPath><path style="clip-path:url(#b);fill:#25f4ee" d="M260.178 257.103v-16.286c-5.453-.742-10.993-1.206-16.646-1.206C175.415 239.612 120 295.029 120 363.144c0 41.794 20.881 78.778 52.737 101.144-20.56-22.073-32.763-51.64-32.763-84.114 0-67.136 53.434-121.51 120.204-123.071"/><path style="clip-path:url(#b);fill:#25f4ee" d="M263.095 436.94c30.391 0 55.537-24.522 56.665-54.644l.256-268.587 48.708.018-.075-.404a93.354 93.354 0 0 1-1.585-17.03h-67.115l-.108 268.973c-1.129 30.12-25.918 54.295-56.309 54.295-9.445 0-18.34-2.361-26.17-6.482 10.254 14.211 26.91 23.861 45.733 23.861M460.436 205.422v-15.757c-18.745 0-36.205-5.573-50.848-15.12 13.037 14.974 30.747 26.574 50.848 30.877"/><path style="clip-path:url(#b);fill:#fe2c55" d="M409.589 174.545c-14.284-16.405-22.963-37.813-22.963-61.221h-18.285c4.734 25.572 20.219 47.51 41.248 61.221M243.532 306.215c-31.107 0-56.791 25.82-56.791 56.93 0 21.662 12.664 40.484 30.621 49.934-6.692-9.274-10.684-20.619-10.684-32.904 0-31.108 25.31-56.418 56.417-56.418 5.807 0 11.378.958 16.647 2.608v-68.517c-5.453-.741-10.993-1.206-16.647-1.206-.978 0-1.944.051-2.917.074l-.258.013-.182 51.864c-5.269-1.65-10.399-2.378-16.206-2.378"/><path style="clip-path:url(#b);fill:#fe2c55" d="m460.436 204.617-.312-.061-.016 51.822c-34.8 0-67.135-11.454-93.458-30.348l.021 137.114c0 68.118-55.024 123.19-123.14 123.19-26.323 0-50.73-7.96-70.795-22.046 22.569 24.226 54.715 39.419 90.358 39.419 68.116 0 123.531-55.415 123.531-123.532V243.783c26.324 18.894 58.574 30.027 93.374 30.027v-67.115a93.307 93.307 0 0 1-19.563-2.078"/><path style="clip-path:url(#b);fill:#fff" d="M367.064 363.145V226.753c26.323 18.894 58.573 30.027 93.373 30.027v-52.162c-20.101-4.304-37.81-15.098-50.848-30.073-21.029-13.711-36.206-35.649-40.94-61.221h-49.137l-.108 268.973c-1.128 30.121-25.918 54.295-56.309 54.295-18.823 0-35.479-9.301-45.733-23.512-17.957-9.451-30.247-28.273-30.247-49.935 0-31.109 25.31-56.418 56.417-56.418 5.807 0 11.377.957 16.647 2.607v-52.618c-66.77 1.56-120.615 56.322-120.615 123.459 0 32.474 12.613 62.041 33.173 84.114 20.065 14.085 44.472 22.388 70.795 22.388 68.115 0 123.532-55.415 123.532-123.532"/></svg>