<svg xmlns="http://www.w3.org/2000/svg" viewBox="0 0 100 100" style="enable-background:new 0 0 100 100" xml:space="preserve"><path style="fill:#1d9bf0" d="M89.496 29.552c.06.875.06 1.75.06 2.633 0 26.907-20.484 57.94-57.94 57.94v-.016A57.647 57.647 0 0 1 .403 80.98a40.89 40.89 0 0 0 30.137-8.44 20.388 20.388 0 0 1-19.024-14.141 20.29 20.29 0 0 0 9.194-.351c-9.5-1.919-16.335-10.266-16.335-19.96v-.258a20.22 20.22 0 0 0 9.242 2.548c-8.948-5.98-11.706-17.883-6.302-27.19a57.794 57.794 0 0 0 41.968 21.274 20.377 20.377 0 0 1 5.891-19.456c8.202-7.71 21.101-7.315 28.81.883a40.859 40.859 0 0 0 12.931-4.944 20.437 20.437 0 0 1-8.952 11.262 40.487 40.487 0 0 0 11.694-3.206 41.325 41.325 0 0 1-10.161 10.551z"/></svg>