<svg xmlns="http://www.w3.org/2000/svg" viewBox="-1.369 -13.299 66.74 66.666" style="enable-background:new -1.369 -13.299 66.74 66.666" xml:space="preserve"><linearGradient id="a" gradientUnits="userSpaceOnUse" x1="59.964" y1="99.544" x2="59.964" y2="-20.057" gradientTransform="matrix(.5565 0 0 -.5559 -1.369 42.219)"><stop offset="0" style="stop-color:#02e36f"/><stop offset="1" style="stop-color:#07c160"/></linearGradient><path style="fill:url(#a)" d="M12.318-13.299C4.79-13.299-1.368-7.147-1.368.374v39.321c0 7.52 6.158 13.671 13.686 13.671h39.366c7.489 0 13.624-6.089 13.687-13.556V.259c-.063-7.467-6.198-13.558-13.687-13.558H12.318z"/><path style="fill:#fff" d="M58.987 26.389c0-7.494-7.296-13.557-16.295-13.557-8.999 0-16.295 6.064-16.295 13.557 0 7.467 7.296 13.53 16.295 13.557a20.248 20.248 0 0 0 5.345-.782c.125-.033.115-.032.442-.097.328-.064.613.097.861.227l3.52 2.086c.162.087.258.13.391.13a.525.525 0 0 0 .522-.521c.006-.154-.043-.276-.081-.406a68.412 68.412 0 0 1-.701-2.723 1.778 1.778 0 0 1-.05-.493c0-.269.139-.558.441-.811 3.409-2.427 5.605-6.1 5.605-10.167zm-21.834-2.347c-1.088 0-2.022-.933-2.022-2.149 0-1.089.934-2.023 2.022-2.023 1.216 0 2.149.934 2.149 2.023 0 1.216-.933 2.149-2.149 2.149m10.82 0c-1.088 0-2.022-.933-2.022-2.149 0-1.089.934-2.023 2.022-2.023 1.216 0 2.149.934 2.149 2.023 0 1.216-.933 2.149-2.149 2.149"/><path style="fill:#fff" d="M4.888 14.135c0 4.856 2.632 9.263 6.779 12.253.305.225.468.482.468.914 0 .15-.026.31-.078.521-.347 1.418-.727 3.041-.782 3.259-.055.217-.141.362-.13.521a.637.637 0 0 0 .652.652c.13 0 .246-.053.391-.131l4.302-2.477c.273-.165.578-.25.784-.25.207 0 .551.064.78.12 1.995.509 4.148.829 6.387.782.346.042.696.042 1.043 0a13.328 13.328 0 0 1-.652-3.911c.017-8.237 7.996-14.875 17.859-14.861.338-.014.691-.003 1.043 0C42.263 3.778 34.183-2.16 24.442-2.16c-10.804 0-19.554 7.278-19.554 16.295zm12.906-2.607a2.607 2.607 0 1 1 0-5.214 2.607 2.607 0 0 1 0 5.214m13.036 0a2.607 2.607 0 1 1 0-5.214 2.607 2.607 0 0 1 0 5.214"/></svg>