<?xml version="1.0" encoding="utf-8"?>
<!-- Generator: Adobe Illustrator 18.0.0, SVG Export Plug-In . SVG Version: 6.00 Build 0)  -->
<!DOCTYPE svg PUBLIC "-//W3C//DTD SVG 1.1//EN" "http://www.w3.org/Graphics/SVG/1.1/DTD/svg11.dtd">
<svg version="1.1" id="Слой_1" xmlns="http://www.w3.org/2000/svg" xmlns:xlink="http://www.w3.org/1999/xlink" x="0px" y="0px"
	 viewBox="0 0 1000 1000" enable-background="new 0 0 1000 1000" xml:space="preserve">
<path d="M0,333.3h111.1V222.2H55.6C24.9,222.2,0,247.1,0,277.8"/>
<path d="M111.1,333.3H0v111.1h55.6c30.7,0,55.6-24.9,55.6-55.6"/>
<path d="M0,666.7h111.1V555.6H55.6C24.9,555.6,0,580.4,0,611.1"/>
<rect y="666.7" width="111.1" height="111.1"/>
<rect y="777.8" width="111.1" height="111.1"/>
<path d="M111.1,555.6h111.1V444.4h-55.6c-30.7,0-55.6,24.9-55.6,55.6"/>
<path d="M222.2,777.8H111.1v111.1h55.6c30.7,0,55.6-24.9,55.6-55.6"/>
<path d="M222.2,222.2h111.1V111.1h-55.6c-30.7,0-55.6,24.9-55.6,55.6"/>
<path d="M333.3,222.2H222.2v111.1h55.6c30.7,0,55.6-24.9,55.6-55.6"/>
<rect x="222.2" y="444.4" width="111.1" height="111.1"/>
<path d="M333.3,555.6H222.2v111.1h55.6c30.7,0,55.6-24.9,55.6-55.6"/>
<path d="M444.4,0h-55.6c-30.7,0-55.6,24.9-55.6,55.6v55.6h55.6c30.7,0,55.6-24.9,55.6-55.6"/>
<path d="M333.3,444.4h111.1V333.3h-55.6c-30.7,0-55.6,24.9-55.6,55.6"/>
<path d="M333.3,888.9h111.1V777.8h-55.6c-30.7,0-55.6,24.9-55.6,55.6"/>
<path d="M444.4,222.2h111.1V111.1H500c-30.7,0-55.6,24.9-55.6,55.6"/>
<rect x="444.4" y="222.2" width="111.1" height="111.1"/>
<rect x="444.4" y="333.3" width="111.1" height="111.1"/>
<rect x="444.4" y="777.8" width="111.1" height="111.1"/>
<rect x="444.4" y="888.9" width="111.1" height="111.1"/>
<path d="M555.6,111.1h111.1V0h-55.6c-30.7,0-55.6,24.9-55.6,55.6"/>
<path d="M666.7,111.1H555.6v111.1h55.6c30.7,0,55.6-24.9,55.6-55.6"/>
<path d="M666.7,333.3H555.6v111.1h55.6c30.7,0,55.6-24.9,55.6-55.6"/>
<path d="M555.6,666.7h111.1V555.6h-55.6c-30.7,0-55.6,24.9-55.6,55.6"/>
<rect x="555.6" y="666.7" width="111.1" height="111.1"/>
<rect x="555.6" y="888.9" width="111.1" height="111.1"/>
<rect x="666.7" y="0" width="111.1" height="111.1"/>
<path d="M666.7,333.3h111.1V222.2h-55.6c-30.7,0-55.6,24.9-55.6,55.6"/>
<path d="M777.8,444.4h-55.6c-30.7,0-55.6,24.9-55.6,55.6v55.6h55.6c30.7,0,55.6-24.9,55.6-55.6"/>
<path d="M777.8,666.7H666.7v111.1h55.6c30.7,0,55.6-24.9,55.6-55.6"/>
<rect x="666.7" y="888.9" width="111.1" height="111.1"/>
<path d="M888.9,0H777.8v111.1h55.6c30.7,0,55.6-24.9,55.6-55.6"/>
<path d="M888.9,222.2H777.8v111.1h55.6c30.7,0,55.6-24.9,55.6-55.6"/>
<path d="M777.8,666.7h111.1V555.6h-55.6c-30.7,0-55.6,24.9-55.6,55.6"/>
<path d="M777.8,888.9h111.1V777.8h-55.6c-30.7,0-55.6,24.9-55.6,55.6"/>
<path d="M888.9,444.4H1000V333.3h-55.6c-30.7,0-55.6,24.9-55.6,55.6"/>
<rect x="888.9" y="444.4" width="111.1" height="111.1"/>
<path d="M1000,555.6H888.9v111.1h55.6c30.7,0,55.6-24.9,55.6-55.6"/>
<path d="M888.9,888.9H777.8V1000h55.6c30.7,0,55.6-24.9,55.6-55.6"/>
</svg>
