<?xml version="1.0" encoding="utf-8"?>
<!-- Generator: Adobe Illustrator 18.0.0, SVG Export Plug-In . SVG Version: 6.00 Build 0)  -->
<!DOCTYPE svg PUBLIC "-//W3C//DTD SVG 1.1//EN" "http://www.w3.org/Graphics/SVG/1.1/DTD/svg11.dtd">
<svg version="1.1" id="Слой_1" xmlns="http://www.w3.org/2000/svg" xmlns:xlink="http://www.w3.org/1999/xlink" x="0px" y="0px"
	 viewBox="0 0 1000 1000" enable-background="new 0 0 1000 1000" xml:space="preserve">
<path d="M0,333.3h111.1v-55.6c0-30.7-24.9-55.6-55.6-55.6S0,247.1,0,277.8"/>
<path d="M111.1,333.3H0v55.6c0,30.7,24.9,55.6,55.6,55.6s55.6-24.9,55.6-55.6"/>
<path d="M0,666.7h111.1v-55.6c0-30.7-24.9-55.6-55.6-55.6S0,580.4,0,611.1"/>
<rect y="666.7" width="111.1" height="111.1"/>
<path d="M111.1,888.9V777.8H0C0,839.1,49.7,888.9,111.1,888.9"/>
<path d="M222.2,555.6V444.4h-55.6c-30.7,0-55.6,24.9-55.6,55.6s24.9,55.6,55.6,55.6"/>
<path d="M111.1,777.8v111.1h55.6c30.7,0,55.6-24.9,55.6-55.6s-24.9-55.6-55.6-55.6"/>
<path d="M222.2,222.2h111.1v-55.6c0-30.7-24.9-55.6-55.6-55.6c-30.7,0-55.6,24.9-55.6,55.6"/>
<path d="M333.3,222.2H222.2v55.6c0,30.7,24.9,55.6,55.6,55.6c30.7,0,55.6-24.9,55.6-55.6"/>
<path d="M222.2,444.4v111.1h111.1C333.3,494.2,283.6,444.4,222.2,444.4"/>
<path d="M333.3,555.6H222.2v55.6c0,30.7,24.9,55.6,55.6,55.6c30.7,0,55.6-24.9,55.6-55.6"/>
<circle cx="388.9" cy="55.6" r="55.6"/>
<path d="M444.4,444.4V333.3h-55.6c-30.7,0-55.6,24.9-55.6,55.6s24.9,55.6,55.6,55.6"/>
<path d="M444.4,888.9V777.8h-55.6c-30.7,0-55.6,24.9-55.6,55.6s24.9,55.6,55.6,55.6"/>
<path d="M444.4,222.2h111.1V111.1C494.2,111.1,444.4,160.9,444.4,222.2"/>
<rect x="444.4" y="222.2" width="111.1" height="111.1"/>
<rect x="444.4" y="333.3" width="111.1" height="111.1"/>
<path d="M444.4,777.8v111.1h111.1C555.6,827.5,505.8,777.8,444.4,777.8"/>
<path d="M555.6,1000V888.9H444.4C444.4,950.3,494.2,1000,555.6,1000"/>
<path d="M555.6,111.1h111.1V0C605.3,0,555.6,49.7,555.6,111.1"/>
<path d="M666.7,111.1H555.6v111.1C616.9,222.2,666.7,172.5,666.7,111.1"/>
<path d="M555.6,333.3v111.1h55.6c30.7,0,55.6-24.9,55.6-55.6s-24.9-55.6-55.6-55.6"/>
<path d="M555.6,666.7h111.1v-55.6c0-30.7-24.9-55.6-55.6-55.6s-55.6,24.9-55.6,55.6"/>
<path d="M666.7,777.8V666.7H555.6C555.6,728,605.3,777.8,666.7,777.8"/>
<rect x="555.6" y="888.9" width="111.1" height="111.1"/>
<rect x="666.7" y="0" width="111.1" height="111.1"/>
<path d="M777.8,333.3V222.2h-55.6c-30.7,0-55.6,24.9-55.6,55.6c0,30.7,24.9,55.6,55.6,55.6"/>
<circle cx="722.2" cy="500" r="55.6"/>
<path d="M666.7,666.7v111.1h55.6c30.7,0,55.6-24.9,55.6-55.6s-24.9-55.6-55.6-55.6"/>
<rect x="666.7" y="888.9" width="111.1" height="111.1"/>
<path d="M777.8,0v111.1h55.6c30.7,0,55.6-24.9,55.6-55.6S864,0,833.3,0"/>
<path d="M777.8,222.2v111.1h55.6c30.7,0,55.6-24.9,55.6-55.6c0-30.7-24.9-55.6-55.6-55.6"/>
<path d="M888.9,666.7V555.6h-55.6c-30.7,0-55.6,24.9-55.6,55.6s24.9,55.6,55.6,55.6"/>
<path d="M777.8,888.9h111.1v-55.6c0-30.7-24.9-55.6-55.6-55.6s-55.6,24.9-55.6,55.6"/>
<rect x="888.9" y="444.4" width="111.1" height="111.1"/>
<path d="M1000,555.6H888.9v111.1C950.3,666.7,1000,616.9,1000,555.6"/>
<path d="M888.9,444.4H1000v-55.6c0-30.7-24.9-55.6-55.6-55.6s-55.6,24.9-55.6,55.6"/>
<path d="M888.9,888.9H777.8V1000C839.1,1000,888.9,950.3,888.9,888.9"/>
</svg>
