<?xml version="1.0" encoding="utf-8"?>
<!-- Generator: Adobe Illustrator 18.0.0, SVG Export Plug-In . SVG Version: 6.00 Build 0)  -->
<!DOCTYPE svg PUBLIC "-//W3C//DTD SVG 1.1//EN" "http://www.w3.org/Graphics/SVG/1.1/DTD/svg11.dtd">
<svg version="1.1" id="Слой_1" xmlns="http://www.w3.org/2000/svg" xmlns:xlink="http://www.w3.org/1999/xlink" x="0px" y="0px"
	 viewBox="0 0 1000 1000" enable-background="new 0 0 1000 1000" xml:space="preserve">
<rect y="222.2" width="111.1" height="111.1"/>
<rect y="333.3" width="111.1" height="111.1"/>
<rect y="555.6" width="111.1" height="111.1"/>
<rect y="666.7" width="111.1" height="111.1"/>
<rect y="777.8" width="111.1" height="111.1"/>
<rect x="111.1" y="444.4" width="111.1" height="111.1"/>
<rect x="111.1" y="777.8" width="111.1" height="111.1"/>
<rect x="222.2" y="111.1" width="111.1" height="111.1"/>
<rect x="222.2" y="222.2" width="111.1" height="111.1"/>
<rect x="222.2" y="444.4" width="111.1" height="111.1"/>
<rect x="222.2" y="555.6" width="111.1" height="111.1"/>
<rect x="333.3" y="0" width="111.1" height="111.1"/>
<rect x="333.3" y="333.3" width="111.1" height="111.1"/>
<rect x="333.3" y="777.8" width="111.1" height="111.1"/>
<rect x="444.4" y="111.1" width="111.1" height="111.1"/>
<rect x="444.4" y="222.2" width="111.1" height="111.1"/>
<rect x="444.4" y="333.3" width="111.1" height="111.1"/>
<rect x="444.4" y="777.8" width="111.1" height="111.1"/>
<rect x="444.4" y="888.9" width="111.1" height="111.1"/>
<rect x="555.6" y="0" width="111.1" height="111.1"/>
<rect x="555.6" y="111.1" width="111.1" height="111.1"/>
<rect x="555.6" y="333.3" width="111.1" height="111.1"/>
<rect x="555.6" y="555.6" width="111.1" height="111.1"/>
<rect x="555.6" y="666.7" width="111.1" height="111.1"/>
<rect x="555.6" y="888.9" width="111.1" height="111.1"/>
<rect x="666.7" y="0" width="111.1" height="111.1"/>
<rect x="666.7" y="222.2" width="111.1" height="111.1"/>
<rect x="666.7" y="444.4" width="111.1" height="111.1"/>
<rect x="666.7" y="666.7" width="111.1" height="111.1"/>
<rect x="666.7" y="888.9" width="111.1" height="111.1"/>
<rect x="777.8" y="0" width="111.1" height="111.1"/>
<rect x="777.8" y="222.2" width="111.1" height="111.1"/>
<rect x="777.8" y="555.6" width="111.1" height="111.1"/>
<rect x="777.8" y="777.8" width="111.1" height="111.1"/>
<rect x="777.8" y="888.9" width="111.1" height="111.1"/>
<rect x="888.9" y="333.3" width="111.1" height="111.1"/>
<rect x="888.9" y="444.4" width="111.1" height="111.1"/>
<rect x="888.9" y="555.6" width="111.1" height="111.1"/>
</svg>
