<svg xmlns="http://www.w3.org/2000/svg" viewBox="0 0 241.379 241.379" style="enable-background:new 0 0 241.379 241.379" xml:space="preserve"><path d="M94.828 68.966h51.724c14.283 0 25.862 11.579 25.862 25.862v51.724c0 14.283-11.579 25.862-25.862 25.862H94.828c-14.283 0-25.862-11.579-25.862-25.862V94.828c0-14.284 11.578-25.862 25.862-25.862z"/><path d="M60.345 0C20.115 0 0 20.115 0 60.345v120.69c0 40.23 20.115 60.345 60.345 60.345h120.69c40.23 0 60.345-20.115 60.345-60.345V60.345C241.379 20.115 221.264 0 181.034 0H60.345zM34.483 64.655c0-20.115 10.057-30.172 30.172-30.172h112.069c20.115 0 30.172 10.057 30.172 30.172v112.069c0 20.115-10.057 30.172-30.172 30.172H64.655c-20.115 0-30.172-10.057-30.172-30.172V64.655z"/></svg>