<svg xmlns="http://www.w3.org/2000/svg" viewBox="107.5 -76.6 60.3 60.3" xml:space="preserve"><path d="M107.5-55v17.2c0 11.9 9.6 21.6 21.6 21.6h17.2c11.9 0 21.6-9.6 21.6-21.6V-55c0-11.9-9.6-21.6-21.6-21.6h-17.2c-11.9 0-21.6 9.7-21.6 21.6m21.6-13h17.2c7.1 0 12.9 5.8 12.9 12.9v17.2c0 7.1-5.8 12.9-12.9 12.9h-17.2c-7.1 0-12.9-5.8-12.9-12.9V-55c0-7.2 5.8-13 12.9-13"/><path d="M133.4-59.3h8.6c4.8 0 8.6 3.9 8.6 8.6v8.6c0 4.8-3.9 8.6-8.6 8.6h-8.6c-4.8 0-8.6-3.9-8.6-8.6v-8.6c0-4.8 3.8-8.6 8.6-8.6z"/></svg>